<?xml version="1.0" encoding="iso-8859-1"?>
<!-- Generator: Adobe Illustrator 16.0.0, SVG Export Plug-In . SVG Version: 6.00 Build 0)  -->
<!DOCTYPE svg PUBLIC "-//W3C//DTD SVG 1.1//EN" "http://www.w3.org/Graphics/SVG/1.1/DTD/svg11.dtd">
<svg version="1.1" id="Capa_1" xmlns="http://www.w3.org/2000/svg" xmlns:xlink="http://www.w3.org/1999/xlink" x="0px" y="0px"
	 width="612px" height="612px" viewBox="0 0 612 612" style="enable-background:new 0 0 612 612;" xml:space="preserve">
<g>
	<g id="Down">
		<g>
			<path d="M306,0C137.012,0,0,137.012,0,306s137.012,306,306,306s306-137.012,306-306S474.988,0,306,0z M306,554.625
				C168.912,554.625,57.375,443.088,57.375,306S168.912,57.375,306,57.375S554.625,168.912,554.625,306S443.088,554.625,306,554.625
				z M411.188,229.5c-8.377,0-15.836,3.634-21.076,9.352l-0.076-0.057L306,330.48l-84.054-91.686l-0.077,0.057
				c-5.221-5.718-12.68-9.352-21.057-9.352c-15.835,0-28.688,12.852-28.688,28.688c0,7.478,2.926,14.21,7.612,19.335l-0.077,0.057
				l105.188,114.75c5.451,5.91,13.101,9.295,21.152,9.295s15.701-3.385,21.133-9.295L432.32,277.58l-0.076-0.057
				c4.705-5.125,7.631-11.857,7.631-19.335C439.875,242.352,427.023,229.5,411.188,229.5z"/>
		</g>
	</g>
</g>
<g>
</g>
<g>
</g>
<g>
</g>
<g>
</g>
<g>
</g>
<g>
</g>
<g>
</g>
<g>
</g>
<g>
</g>
<g>
</g>
<g>
</g>
<g>
</g>
<g>
</g>
<g>
</g>
<g>
</g>
</svg>
