<?xml version="1.0" encoding="iso-8859-1"?>
<!-- Generator: Adobe Illustrator 16.0.0, SVG Export Plug-In . SVG Version: 6.00 Build 0)  -->
<!DOCTYPE svg PUBLIC "-//W3C//DTD SVG 1.1//EN" "http://www.w3.org/Graphics/SVG/1.1/DTD/svg11.dtd">
<svg version="1.1" id="Capa_1" xmlns="http://www.w3.org/2000/svg" xmlns:xlink="http://www.w3.org/1999/xlink" x="0px" y="0px"
	 width="314.069px" height="314.069px" viewBox="0 0 314.069 314.069" style="enable-background:new 0 0 314.069 314.069;"
	 xml:space="preserve">
<g>
	<g id="_x34_95._Up">
		<g>
			<path fill="gray" d="M168.133,97.482c-6.126-6.127-16.072-6.127-22.197,0h-0.008c-0.016,0.016-0.024,0.032-0.032,0.04l-44.369,44.364
				c-6.133,6.129-6.133,16.08,0,22.208v-0.009c6.129,6.132,16.068,6.132,22.201,0l17.607-17.598v65.503
				c0,8.664,7.033,15.701,15.701,15.701c8.668,0,15.696-7.037,15.696-15.701v-65.503l17.602,17.598
				c6.135,6.132,16.077,6.132,22.201,0v0.009c6.135-6.128,6.135-16.078,0-22.208L168.133,97.482z M293.004,78.525
				C249.648,3.436,153.62-22.295,78.531,21.061C3.436,64.411-22.296,160.443,21.068,235.542
				c43.35,75.087,139.375,100.822,214.465,57.467C310.629,249.648,336.365,153.621,293.004,78.525z M219.836,265.802
				c-60.075,34.685-136.894,14.114-171.576-45.969C13.57,159.762,34.163,82.936,94.232,48.253
				c60.071-34.683,136.894-14.099,171.578,45.979C300.495,154.308,279.908,231.118,219.836,265.802z"/>
		</g>
	</g>
</g>
<g>
</g>
<g>
</g>
<g>
</g>
<g>
</g>
<g>
</g>
<g>
</g>
<g>
</g>
<g>
</g>
<g>
</g>
<g>
</g>
<g>
</g>
<g>
</g>
<g>
</g>
<g>
</g>
<g>
</g>
</svg>
