<?xml version="1.0" encoding="iso-8859-1"?>
<!-- Generator: Adobe Illustrator 18.1.1, SVG Export Plug-In . SVG Version: 6.00 Build 0)  -->
<svg version="1.1" id="Capa_1" xmlns="http://www.w3.org/2000/svg" xmlns:xlink="http://www.w3.org/1999/xlink" x="0px" y="0px"
	 viewBox="0 0 76 76" style="enable-background:new 0 0 76 76;" xml:space="preserve">
<g id="_x37_7_Essential_Icons_20_">
	<path id="Down_Arrow" d="M55.9,33L39,49.9c-0.4,0.4-0.9,0.6-1.4,0.6s-1-0.2-1.4-0.6L20.1,33.8c-0.8-0.8-0.8-2,0-2.8s2-0.8,2.8,0
		l14.7,14.7l15.5-15.5c0.8-0.8,2-0.8,2.8,0C56.7,30.9,56.7,32.2,55.9,33z M76,38c0,21-17,38-38,38S0,59,0,38S17,0,38,0S76,17,76,38z
		 M72,38C72,19.2,56.8,4,38,4S4,19.2,4,38s15.2,34,34,34S72,56.8,72,38z"/>
</g>
<g>
</g>
<g>
</g>
<g>
</g>
<g>
</g>
<g>
</g>
<g>
</g>
<g>
</g>
<g>
</g>
<g>
</g>
<g>
</g>
<g>
</g>
<g>
</g>
<g>
</g>
<g>
</g>
<g>
</g>
</svg>
