<?xml version="1.0" encoding="iso-8859-1"?>
<!-- Generator: Adobe Illustrator 16.0.0, SVG Export Plug-In . SVG Version: 6.00 Build 0)  -->
<!DOCTYPE svg PUBLIC "-//W3C//DTD SVG 1.1//EN" "http://www.w3.org/Graphics/SVG/1.1/DTD/svg11.dtd">
<svg version="1.1" id="Capa_1" xmlns="http://www.w3.org/2000/svg" xmlns:xlink="http://www.w3.org/1999/xlink" x="0px" y="0px"
	 width="314.065px" height="314.065px" viewBox="0 0 314.065 314.065" style="enable-background:new 0 0 314.065 314.065;"
	 xml:space="preserve">
<g>
	<g id="_x34_96._Down">
		<g>
			<path d="M190.333,149.972l-17.602,17.6v-65.497c0-8.666-7.036-15.701-15.701-15.701c-8.668,0-15.701,7.035-15.701,15.701v65.497
				l-17.607-17.6c-6.133-6.129-16.072-6.129-22.201,0c-6.133,6.129-6.133,16.078,0,22.202l44.408,44.41h-0.008
				c3.07,3.069,7.083,4.6,11.108,4.6c2.008,0,4.022-0.384,5.903-1.149c1.892-0.766,3.663-1.907,5.198-3.442l44.402-44.41
				c6.127-6.128,6.127-16.072,0-22.201C206.411,143.834,196.46,143.834,190.333,149.972z M235.533,21.061
				C160.438-22.295,64.414,3.436,21.063,78.531c-43.356,75.089-17.633,171.117,57.464,214.478
				c75.087,43.348,171.119,17.62,214.476-57.467C336.364,160.443,310.62,64.419,235.533,21.061z M265.801,219.841
				c-34.688,60.075-111.503,80.653-171.574,45.961C34.158,231.118,13.565,154.308,48.25,94.232
				c34.683-60.078,111.499-80.662,171.578-45.971C279.899,82.936,300.485,159.762,265.801,219.841z"/>
		</g>
	</g>
</g>
<g>
</g>
<g>
</g>
<g>
</g>
<g>
</g>
<g>
</g>
<g>
</g>
<g>
</g>
<g>
</g>
<g>
</g>
<g>
</g>
<g>
</g>
<g>
</g>
<g>
</g>
<g>
</g>
<g>
</g>
</svg>
