<?xml version="1.0" encoding="iso-8859-1"?>
<!-- Generator: Adobe Illustrator 16.0.0, SVG Export Plug-In . SVG Version: 6.00 Build 0)  -->
<!DOCTYPE svg PUBLIC "-//W3C//DTD SVG 1.1//EN" "http://www.w3.org/Graphics/SVG/1.1/DTD/svg11.dtd">
<svg version="1.1" id="Capa_1" xmlns="http://www.w3.org/2000/svg" xmlns:xlink="http://www.w3.org/1999/xlink" x="0px" y="0px"
	 width="314.014px" height="314.015px" viewBox="0 0 314.014 314.015" style="enable-background:new 0 0 314.014 314.015;"
	 xml:space="preserve">
<g>
	<g id="_x34_29._Network">
		<g>
			<path fill="#454545" d="M282.612,222.557v-49.849c0-17.342-14.058-31.402-31.398-31.402h-78.505V91.464
				c18.286-6.474,31.402-23.866,31.402-44.368c0-26.008-21.1-47.096-47.104-47.096c-26.008,0-47.102,21.087-47.102,47.096
				c0,20.502,13.117,37.894,31.4,44.368v49.842H62.803c-17.34,0-31.4,14.06-31.4,31.402v49.849C13.117,229.017,0,246.413,0,266.911
				c0,26.004,21.093,47.104,47.101,47.104s47.103-21.1,47.103-47.104c0-20.498-13.118-37.895-31.402-44.354v-49.849h78.503v49.849
				c-18.284,6.46-31.4,23.856-31.4,44.354c0,26.004,21.093,47.104,47.102,47.104c26.004,0,47.104-21.1,47.104-47.104
				c0-20.498-13.116-37.895-31.402-44.354v-49.849h78.505v49.849c-18.285,6.46-31.401,23.856-31.401,44.354
				c0,26.004,21.095,47.104,47.099,47.104c26.009,0,47.104-21.1,47.104-47.104C314.014,246.413,300.898,229.017,282.612,222.557z
				 M47.102,282.612c-8.666,0-15.699-7.037-15.699-15.701c0-8.677,7.033-15.697,15.699-15.697c8.668,0,15.701,7.021,15.701,15.697
				C62.803,275.575,55.77,282.612,47.102,282.612z M157.007,282.612c-8.666,0-15.701-7.037-15.701-15.701
				c0-8.677,7.035-15.697,15.701-15.697c8.664,0,15.701,7.021,15.701,15.697C172.708,275.575,165.671,282.612,157.007,282.612z
				 M157.007,62.803c-8.666,0-15.701-7.033-15.701-15.707c0-8.676,7.035-15.693,15.701-15.693c8.664,0,15.701,7.025,15.701,15.693
				C172.708,55.762,165.671,62.803,157.007,62.803z M266.911,282.612c-8.66,0-15.697-7.037-15.697-15.701
				c0-8.677,7.037-15.697,15.697-15.697c8.664,0,15.701,7.021,15.701,15.697C282.612,275.575,275.575,282.612,266.911,282.612z"/>
		</g>
	</g>
</g>
<g>
</g>
<g>
</g>
<g>
</g>
<g>
</g>
<g>
</g>
<g>
</g>
<g>
</g>
<g>
</g>
<g>
</g>
<g>
</g>
<g>
</g>
<g>
</g>
<g>
</g>
<g>
</g>
<g>
</g>
</svg>
